<svg width="200" height="200" viewBox="0 0 200 200" fill="none" xmlns="http://www.w3.org/2000/svg">
<rect x="10" y="10" width="180" height="180" rx="90" fill="#EA5455"/>
<rect x="10" y="10" width="180" height="180" rx="90" fill="white" fill-opacity="0.9"/>
<rect x="41" y="41" width="118" height="118" rx="59" fill="#EA5455"/>
<path d="M80.5 80.5C81.1666 79.8334 82.1663 79.8335 82.833 80.5L119.5 117.167C120.167 117.834 120.167 118.833 119.5 119.5C119.167 119.833 118.833 120 118.333 120C117.833 120 117.5 119.833 117.167 119.5L108 110.333C107.167 112 105.333 113.333 103.333 113.333H85C82.1667 113.333 80 111.166 80 108.333V91.667C80 89.1671 81.8332 87.0005 84.333 86.667L80.5 82.833C79.8335 82.1663 79.8334 81.1666 80.5 80.5ZM85 90C84 90 83.333 90.667 83.333 91.667V108.333C83.333 109.333 84 110 85 110H103.333C104.333 110 105 109.333 105 108.333V107.333L87.667 90H85ZM103.333 86.667C106.166 86.667 108.333 88.8337 108.333 91.667V96.5L108.5 96.667L117.333 90.333C117.833 89.9997 118.5 89.8337 119 90.167C119.667 90.5003 120 91.0004 120 91.667V108.333C120 109.333 119.333 110 118.333 110C117.333 110 116.667 109.333 116.667 108.333V95L109.333 100.333C108.666 100.833 107.834 100.667 107.167 100.167L105.5 98.5C105.167 98.1667 105 97.833 105 97.333V91.667C105 90.667 104.333 90 103.333 90H97.833C96.8332 89.9999 96.167 89.3329 96.167 88.333C96.1671 87.3333 96.8333 86.6671 97.833 86.667H103.333Z" fill="white"/>
<mask id="mask0_28642_37958" style="mask-type:luminance" maskUnits="userSpaceOnUse" x="80" y="80" width="40" height="40">
<path d="M80.5 80.5C81.1666 79.8334 82.1663 79.8335 82.833 80.5L119.5 117.167C120.167 117.834 120.167 118.833 119.5 119.5C119.167 119.833 118.833 120 118.333 120C117.833 120 117.5 119.833 117.167 119.5L108 110.333C107.167 112 105.333 113.333 103.333 113.333H85C82.1667 113.333 80 111.166 80 108.333V91.667C80 89.1671 81.8332 87.0005 84.333 86.667L80.5 82.833C79.8335 82.1663 79.8334 81.1666 80.5 80.5ZM85 90C84 90 83.333 90.667 83.333 91.667V108.333C83.333 109.333 84 110 85 110H103.333C104.333 110 105 109.333 105 108.333V107.333L87.667 90H85ZM103.333 86.667C106.166 86.667 108.333 88.8337 108.333 91.667V96.5L108.5 96.667L117.333 90.333C117.833 89.9997 118.5 89.8337 119 90.167C119.667 90.5003 120 91.0004 120 91.667V108.333C120 109.333 119.333 110 118.333 110C117.333 110 116.667 109.333 116.667 108.333V95L109.333 100.333C108.666 100.833 107.834 100.667 107.167 100.167L105.5 98.5C105.167 98.1667 105 97.833 105 97.333V91.667C105 90.667 104.333 90 103.333 90H97.833C96.8332 89.9999 96.167 89.3329 96.167 88.333C96.1671 87.3333 96.8333 86.6671 97.833 86.667H103.333Z" fill="white"/>
</mask>
<g mask="url(#mask0_28642_37958)">
<rect x="80" y="80" width="40" height="40" fill="white"/>
</g>
</svg>
